<svg width="160" height="33" viewBox="0 0 160 33" fill="none" xmlns="http://www.w3.org/2000/svg">
<path d="M1.34203 30.12C0.835365 29.8 0.582031 29.2933 0.582031 28.6C0.582031 27.9067 1.0887 26.8533 2.10203 25.44C2.39536 24.9867 2.86203 24.76 3.50203 24.76C4.1687 24.76 5.06203 25.0933 6.18203 25.76C7.30203 26.4 8.31537 26.72 9.22203 26.72C10.8487 26.72 11.662 26.4 11.662 25.76C11.662 25.2533 10.7687 24.88 8.98203 24.64C7.30203 24.4 5.63536 23.7733 3.98203 22.76C3.2087 22.28 2.5687 21.5333 2.06203 20.52C1.55536 19.48 1.30203 18.2533 1.30203 16.84C1.30203 12.6267 4.19536 10.52 9.98203 10.52C11.8754 10.52 13.822 10.9733 15.822 11.88C16.7554 12.3067 17.222 12.84 17.222 13.48C17.222 14.12 16.9287 14.9067 16.342 15.84C15.7554 16.7733 15.1554 17.24 14.542 17.24C14.222 17.24 13.622 17.04 12.742 16.64C11.8887 16.24 10.9554 16.04 9.94203 16.04C8.3687 16.04 7.58203 16.3333 7.58203 16.92C7.58203 17.72 8.4887 18.24 10.302 18.48C12.062 18.6667 13.7687 19.1733 15.422 20C16.1954 20.3733 16.8354 21.0267 17.342 21.96C17.8754 22.8667 18.142 24.0133 18.142 25.4C18.142 26.7867 17.8754 27.9733 17.342 28.96C16.8354 29.92 16.1154 30.64 15.182 31.12C13.4754 31.9467 11.3287 32.36 8.74203 32.36C6.18203 32.36 3.71536 31.6133 1.34203 30.12ZM20.1523 21.48C20.1523 18.28 21.2723 15.64 23.5123 13.56C25.7523 11.48 28.3123 10.44 31.1923 10.44C34.0723 10.44 36.619 11.48 38.8323 13.56C41.0457 15.6133 42.1523 18.24 42.1523 21.44C42.1523 23.6533 41.579 25.6267 40.4323 27.36C39.2857 29.0667 37.8857 30.3333 36.2323 31.16C34.6057 31.96 32.9123 32.36 31.1523 32.36C29.3923 32.36 27.6857 31.9333 26.0323 31.08C24.379 30.2 22.979 28.92 21.8323 27.24C20.7123 25.5333 20.1523 23.6133 20.1523 21.48ZM28.5123 24.36C29.3657 25 30.2323 25.32 31.1123 25.32C31.9923 25.32 32.8723 24.9867 33.7523 24.32C34.6323 23.6533 35.0723 22.6667 35.0723 21.36C35.0723 20.0533 34.659 19.08 33.8323 18.44C33.0057 17.8 32.1123 17.48 31.1523 17.48C30.1923 17.48 29.299 17.8133 28.4723 18.48C27.6457 19.1467 27.2323 20.1333 27.2323 21.44C27.2323 22.72 27.659 23.6933 28.5123 24.36ZM71.5767 18L68.9767 17.84V23.36C68.9767 24.08 69.0834 24.6 69.2967 24.92C69.5367 25.24 69.9634 25.4 70.5767 25.4C71.2167 25.4 71.6967 25.4267 72.0167 25.48C72.3634 25.5067 72.7101 25.6267 73.0567 25.84C73.6967 26.1867 74.0167 27.08 74.0167 28.52C74.0167 30.2 73.6434 31.2267 72.8967 31.6C72.4967 31.7867 72.1367 31.9067 71.8167 31.96C71.5234 31.9867 71.0834 32 70.4967 32C67.8834 32 65.8167 31.2667 64.2967 29.8C62.7767 28.3333 62.0167 26.32 62.0167 23.76V17.84C60.5767 17.92 59.3501 17.96 58.3367 17.96L54.4567 17.8V28.52C54.4567 29.5333 54.3234 30.2933 54.0567 30.8C53.8167 31.28 53.4301 31.6 52.8967 31.76C52.3901 31.92 51.7234 32 50.8967 32C50.0701 32 49.4034 31.92 48.8967 31.76C48.4167 31.5733 48.0701 31.2933 47.8567 30.92C47.6434 30.52 47.5101 30.16 47.4567 29.84C47.4301 29.52 47.4167 29.0533 47.4167 28.44V17.84C46.8834 17.92 46.3234 17.96 45.7367 17.96C45.1767 17.96 44.6967 17.7333 44.2967 17.28C43.9234 16.8267 43.7367 16.0533 43.7367 14.96C43.7367 13.8667 43.8034 13.08 43.9367 12.6C44.0701 12.0933 44.2567 11.7333 44.4967 11.52C44.9234 11.1733 45.4567 11 46.0967 11L47.4167 11.16V9.04C47.4167 6.98667 48.1501 5.13333 49.6167 3.48C51.0834 1.8 53.2034 0.959999 55.9767 0.959999C56.5901 0.959999 57.0434 0.986665 57.3367 1.04C57.6567 1.06666 58.0167 1.17333 58.4167 1.36C59.1367 1.73333 59.4967 2.77333 59.4967 4.48C59.4967 5.76 59.2701 6.66667 58.8167 7.2C58.4434 7.65333 57.8567 7.89333 57.0567 7.92C56.8167 7.94667 56.4434 7.96 55.9367 7.96C54.9501 7.96 54.4567 8.29333 54.4567 8.96V11.16C55.9234 11.0533 57.2034 11 58.2967 11L62.0167 11.16V7.04C62.0167 6.42667 62.0301 5.97333 62.0567 5.68C62.1101 5.38667 62.2301 5.06667 62.4167 4.72C62.7901 4.05333 63.8301 3.72 65.5367 3.72C67.3501 3.72 68.4167 4.21333 68.7367 5.2C68.8967 5.62667 68.9767 6.30667 68.9767 7.24V11.16C70.1501 11.0533 71.0301 11 71.6167 11C72.2301 11 72.6834 11.0267 72.9767 11.08C73.2967 11.1067 73.6434 11.2267 74.0167 11.44C74.7367 11.7867 75.0967 12.8133 75.0967 14.52C75.0967 16.2 74.7367 17.2267 74.0167 17.6C73.6167 17.7867 73.2567 17.9067 72.9367 17.96C72.6434 17.9867 72.1901 18 71.5767 18ZM89.7148 21.44L95.0348 25.84C95.7015 26.4 96.1148 26.8267 96.2748 27.12C96.4615 27.4133 96.5548 27.6933 96.5548 27.96C96.5548 28.6 96.1415 29.4667 95.3148 30.56C94.4082 31.68 93.6082 32.24 92.9148 32.24C92.3282 32.24 91.5148 31.8533 90.4748 31.08L90.0748 30.8C89.4615 30.2933 88.5148 29.4133 87.2348 28.16C85.9548 26.88 84.9815 25.9733 84.3148 25.44V28.52C84.3148 29.1333 84.2882 29.6 84.2348 29.92C84.2082 30.2133 84.0882 30.56 83.8748 30.96C83.5282 31.6533 82.5015 32 80.7948 32C79.1148 32 78.0882 31.64 77.7148 30.92C77.5282 30.52 77.4082 30.1733 77.3548 29.88C77.3282 29.56 77.3148 29.0933 77.3148 28.48V4.52C77.3148 3.90667 77.3282 3.45333 77.3548 3.16C77.4082 2.84 77.5282 2.48 77.7148 2.08C78.0882 1.36 79.1282 0.999999 80.8348 0.999999C82.1148 0.999999 83.0215 1.22667 83.5548 1.68C84.0082 2.05333 84.2482 2.64 84.2748 3.44C84.3015 3.68 84.3148 4.05333 84.3148 4.56V17.24C84.7948 16.84 85.5148 16.16 86.4748 15.2C87.4615 14.24 88.1948 13.56 88.6748 13.16L89.1548 12.84C90.0882 12.12 90.8882 11.76 91.5548 11.76C92.2215 11.76 92.9815 12.3067 93.8348 13.4C94.7148 14.4667 95.1548 15.3067 95.1548 15.92C95.1548 16.5333 94.6615 17.2533 93.6748 18.08L89.7148 21.44ZM117.869 18.96C117.869 20.5867 117.456 21.8 116.629 22.6C115.829 23.3733 114.936 23.76 113.949 23.76H104.469C104.469 24.5067 104.909 25.1333 105.789 25.64C106.669 26.1467 107.549 26.4 108.429 26.4C109.976 26.4 111.189 26.24 112.069 25.92L112.509 25.76C113.149 25.4667 113.683 25.32 114.109 25.32C114.963 25.32 115.696 25.92 116.309 27.12C116.656 27.84 116.829 28.4533 116.829 28.96C116.829 31.3333 113.989 32.52 108.309 32.52C106.336 32.52 104.576 32.1867 103.029 31.52C101.509 30.8267 100.323 29.92 99.4692 28.8C97.7892 26.64 96.9492 24.2267 96.9492 21.56C96.9492 18.2 98.0292 15.52 100.189 13.52C102.376 11.4933 105.096 10.48 108.349 10.48C112.056 10.48 114.776 11.7867 116.509 14.4C117.416 15.7867 117.869 17.3067 117.869 18.96ZM109.429 20.12C110.443 20.12 110.949 19.6933 110.949 18.84C110.949 18.2267 110.709 17.7333 110.229 17.36C109.776 16.9867 109.109 16.8 108.229 16.8C107.376 16.8 106.523 17.16 105.669 17.88C104.816 18.5733 104.389 19.32 104.389 20.12H109.429ZM134.799 11.16C135.306 11.32 135.719 11.6 136.039 12C136.386 12.3733 136.559 12.9867 136.559 13.84C136.559 14.6933 136.306 15.6267 135.799 16.64C135.292 17.6533 134.559 18.16 133.599 18.16C133.119 18.16 132.652 18.0533 132.199 17.84C131.772 17.6267 131.199 17.52 130.479 17.52C129.759 17.52 129.079 17.7733 128.439 18.28C127.826 18.7867 127.519 19.4 127.519 20.12V28.52C127.519 29.1333 127.492 29.6 127.439 29.92C127.412 30.2133 127.292 30.56 127.079 30.96C126.679 31.6533 125.639 32 123.959 32C122.679 32 121.759 31.7733 121.199 31.32C120.772 30.9467 120.532 30.3733 120.479 29.6C120.479 29.3333 120.479 28.9467 120.479 28.44V14.4C120.479 13.7867 120.492 13.3333 120.519 13.04C120.572 12.72 120.692 12.3733 120.879 12C121.252 11.28 122.292 10.92 123.999 10.92C125.599 10.92 126.599 11.2267 126.999 11.84C127.292 12.2667 127.439 12.7067 127.439 13.16C127.572 12.9733 127.759 12.7467 127.999 12.48C128.266 12.2133 128.812 11.8533 129.639 11.4C130.466 10.9467 131.186 10.72 131.799 10.72C132.439 10.72 132.972 10.76 133.399 10.84C133.826 10.8933 134.292 11 134.799 11.16ZM150.48 10.92C153.147 10.92 155.36 11.9467 157.12 14C158.907 16.0267 159.8 18.5067 159.8 21.44V28.48C159.8 29.0933 159.773 29.56 159.72 29.88C159.693 30.1733 159.587 30.5067 159.4 30.88C159.027 31.6 157.987 31.96 156.28 31.96C154.387 31.96 153.293 31.4667 153 30.48C152.84 30.0267 152.76 29.3467 152.76 28.44V21.4C152.76 20.3067 152.44 19.4533 151.8 18.84C151.187 18.2267 150.347 17.92 149.28 17.92C148.24 17.92 147.387 18.24 146.72 18.88C146.08 19.52 145.76 20.36 145.76 21.4V28.48C145.76 29.0933 145.733 29.56 145.68 29.88C145.653 30.1733 145.533 30.5067 145.32 30.88C144.973 31.6 143.947 31.96 142.24 31.96C140.56 31.96 139.533 31.6 139.16 30.88C138.973 30.48 138.853 30.1333 138.8 29.84C138.773 29.52 138.76 29.0533 138.76 28.44V14.28C138.76 13.6933 138.773 13.2533 138.8 12.96C138.853 12.64 138.987 12.2933 139.2 11.92C139.573 11.2533 140.6 10.92 142.28 10.92C143.907 10.92 144.907 11.2267 145.28 11.84C145.547 12.2933 145.68 12.84 145.68 13.48C145.787 13.2933 146.027 13.0267 146.4 12.68C146.773 12.3333 147.133 12.0533 147.48 11.84C148.387 11.2267 149.387 10.92 150.48 10.92Z" fill="url(#paint0_linear_4_7)"/>
<defs>
<linearGradient id="paint0_linear_4_7" x1="-1" y1="17" x2="162" y2="17" gradientUnits="userSpaceOnUse">
<stop stop-color="#D5F4FF"/>
<stop offset="1" stop-color="#109BE6"/>
</linearGradient>
</defs>
</svg>
