<svg xmlns="http://www.w3.org/2000/svg" xmlns:xlink="http://www.w3.org/1999/xlink" fill="none" version="1.1" width="92.91650390625" height="92.79833984375" viewBox="0 0 92.91650390625 92.79833984375"><g><g><path d="M26.9102,0.0172878C27.4886,0.0176706,28.067,0.0162772,28.6454,0.0151308C29.7756,0.0131819,30.9057,0.0128952,32.0358,0.0132561C32.9554,0.0135313,33.8751,0.0132589,34.7947,0.012607C34.9261,0.0125155,35.0575,0.0124241,35.1929,0.0123299C35.46,0.0121436,35.727,0.0119571,35.9941,0.0117702C38.4928,0.0101028,40.9915,0.0104295,43.4903,0.0113683C45.77,0.0121622,48.0497,0.0104336,50.3294,0.00751169C52.6771,0.004526,55.0248,0.00326675,57.3725,0.00384276C58.6878,0.00413537,60.003,0.00376602,61.3183,0.0015817C62.4381,-0.000259365,63.5579,-0.000453364,64.6777,0.00139579C65.2476,0.00229347,65.8175,0.00248991,66.3874,0.000627119C69.3558,-0.00841649,72.2591,0.069861,75.1243,0.933665C75.3228,0.992253,75.3228,0.992253,75.5253,1.05202C81.7654,2.96593,86.9843,7.34296,90.0618,13.0807C92.3761,17.5519,92.9269,22.0071,92.9132,26.9894C92.9121,27.5632,92.9138,28.137,92.915,28.7108C92.9171,29.8303,92.9167,30.9498,92.9153,32.0693C92.9143,32.9803,92.9141,33.8914,92.9146,34.8024C92.9147,34.9328,92.9148,35.0632,92.9148,35.1976C92.915,35.4626,92.9151,35.7277,92.9153,35.9927C92.9166,38.4693,92.9151,40.946,92.9126,43.4226C92.9106,45.5407,92.9109,47.6588,92.913,49.7769C92.9155,52.2456,92.9165,54.7142,92.9151,57.1829C92.9149,57.4469,92.9148,57.7109,92.9146,57.9749C92.9146,58.1047,92.9145,58.2346,92.9144,58.3683C92.914,59.2767,92.9147,60.1851,92.9158,61.0934C92.9171,62.2027,92.9167,63.312,92.9143,64.4212C92.9131,64.9856,92.9126,65.5499,92.9141,66.1142C92.9216,69.1091,92.8641,72.1006,91.979,74.9889C91.9399,75.12,91.9009,75.2512,91.8606,75.3863C90.7039,79.1414,88.7972,82.3344,86.0918,85.1882C85.9564,85.3335,85.8209,85.4789,85.6813,85.6287C81.7117,89.8039,75.7897,92.5798,70.0071,92.7605C68.8729,92.7822,67.7388,92.7825,66.6044,92.7801C66.0099,92.7794,65.4153,92.7813,64.8208,92.7829C63.6596,92.7855,62.4984,92.7856,61.3372,92.7848C60.3921,92.7842,59.4471,92.7844,58.502,92.7852C58.3669,92.7854,58.2318,92.7855,58.0926,92.7856C57.818,92.7858,57.5434,92.7861,57.2688,92.7863C54.7003,92.7884,52.1319,92.7876,49.5635,92.7858C47.2209,92.7843,44.8783,92.7863,42.5358,92.7899C40.1224,92.7937,37.7091,92.7952,35.2957,92.7942C33.944,92.7936,32.5923,92.7939,31.2406,92.7966C30.0898,92.7989,28.9391,92.799,27.7883,92.7963C27.2028,92.795,26.6173,92.7947,26.0318,92.7971C22.886,92.8089,19.8033,92.6725,16.8097,91.6035C16.6781,91.5579,16.5464,91.5124,16.4108,91.4654C15.149,91.0146,13.9637,90.4513,12.7953,89.798C12.6959,89.7429,12.5965,89.6878,12.4941,89.6311C11.1554,88.8814,9.95383,88.0502,8.80013,87.0321C8.66563,86.9144,8.53114,86.7968,8.39257,86.6756C3.3767,82.2254,0.568437,76.2518,0.0729456,69.5845C0.0241433,68.7627,0.0197118,67.9431,0.0208794,67.1201C0.0205301,66.9362,0.0201831,66.7523,0.0198243,66.5628C0.0190271,66.0585,0.0189029,65.5542,0.0190858,65.0498C0.0191162,64.5034,0.0182651,63.957,0.0175406,63.4107C0.0162698,62.3424,0.0158407,61.2741,0.0157563,60.2058C0.0156813,59.3362,0.0153647,58.4667,0.0148794,57.5971C0.0135288,55.1253,0.0128184,52.6535,0.0129333,50.1817C0.012938,50.0488,0.012945,49.9158,0.0129521,49.7788C0.0129567,49.6457,0.0129638,49.5125,0.0129708,49.3754C0.0130318,47.2205,0.011564,45.0655,0.00939516,42.9106C0.00718178,40.6916,0.00612901,38.4726,0.00626032,36.2536C0.0063119,35.0103,0.00589923,33.7671,0.00423451,32.5239C0.00282769,31.4649,0.00251116,30.4059,0.00354517,29.347C0.00404224,28.8082,0.00407272,28.2694,0.00272218,27.7306C-0.00963667,21.6873,-0.00963667,21.6873,0.694487,18.9985C0.728037,18.8659,0.761585,18.7333,0.796153,18.5966C1.80681,14.7142,3.58957,11.1765,6.33854,8.23018C6.61058,7.93762,6.86612,7.63847,7.11946,7.32982C7.62743,6.73627,8.1967,6.23972,8.80013,5.74519C8.93878,5.62971,9.07744,5.51423,9.2203,5.39525C11.9457,3.20591,15.0613,1.6719,18.4328,0.770399C18.5694,0.733693,18.706,0.696986,18.8468,0.659167C21.5119,-0.00854781,24.1815,0.0138975,26.9102,0.0172878Z" fill="#0F9ED9" fill-opacity="1" style="mix-blend-mode:passthrough"/></g><g><path d="M30.66973203125,32.650208015625C30.95163203125,32.650555315625,31.23343203125,32.650359115625,31.51523203125,32.649664015625C32.27593203125,32.649313115625,33.03633203125,32.656511815625,33.79693203125,32.665121115625C34.59343203125,32.672834915625,35.38993203125,32.673530215625,36.186532031249996,32.674986715625C37.69283203125,32.678799015625,39.19913203125,32.688875115625,40.70543203125,32.701231415625C42.421132031249996,32.714998315625,44.13693203125,32.721737315625,45.852632031249996,32.727901415625C49.38023203125,32.740731015625,52.90773203125,32.762337015625,56.43523203125,32.789764015625C56.33383203125,33.314100015625,56.21003203125,33.807586015625,56.03763203125,34.313286015625C55.98743203125,34.461016015625,55.93733203125,34.608746015625,55.88573203125,34.760946015625C55.83093203125,34.920796015625,55.77623203125,35.080646015625,55.71973203125,35.245346015625C55.66233203125,35.414296015625,55.60483203125,35.583236015625,55.54563203125,35.757306015625C55.35603203125,36.314496015625,55.16573203125,36.871456015625,54.97543203125,37.428416015625004C54.84253203125,37.818786015625,54.70953203125,38.209166015625,54.57663203125,38.599566015625C54.30413203125,39.400076015625004,54.03133203125,40.200486015625,53.75833203125,41.000826015625C53.39783203125,42.057686015625,53.03813203125,43.114816015624996,52.67893203125,44.172116015625C52.62533203125,44.330016015625,52.57163203125,44.487916015625004,52.51633203125,44.650616015625C52.40953203125,44.965016015625,52.30273203125,45.279416015625,52.19593203125,45.593816015625C51.92853203125,46.380616015625,51.66083203125,47.167416015625,51.39323203125,47.954216015625C50.95773203125,49.234716015625,50.52233203125,50.515216015625,50.08713203125,51.795716015625004C49.598332031249996,53.234016015625,49.10933203125,54.672116015625,48.62013203125,56.110216015625C48.34713203125,56.912716015625,48.07423203125,57.715316015625,47.801532031250005,58.518016015625C47.52973203125,59.318016015625,47.25763203125,60.117916015625,46.98553203125,60.917816015625C46.883432031249995,61.217716015625,46.781532031249995,61.517716015625,46.67963203125,61.817716015624995C46.539932031250004,62.229016015625,46.40003203125,62.640216015625,46.25993203125,63.051516015625C46.19803203125,63.234316015625,46.19803203125,63.234316015625,46.134732031249996,63.420816015625C45.85013203125,64.255316015625,45.85013203125,64.255316015625,45.67893203125,64.597716015625C43.09283203125,64.597716015625,40.506732031249996,64.597716015625,37.84223203125,64.597716015625C38.015132031250005,63.387416015625,38.015132031250005,63.387416015625,38.20483203125,62.820416015625C38.24723203125,62.692416015625,38.289532031250005,62.564416015625,38.33323203125,62.432616015625C38.37933203125,62.296316015624996,38.42553203125,62.160016015625004,38.47303203125,62.019616015625004C38.521532031250004,61.874216015624995,38.57003203125,61.728716015625,38.62003203125,61.578816015625C38.77913203125,61.102616015625,38.93973203125,60.626816015624996,39.100332031250005,60.151116015625C39.212032031250004,59.818016015625,39.32373203125,59.484916015625004,39.43543203125,59.151816015625C40.216032031249995,56.828816015625,41.01953203125,54.514216015624996,41.83473203125,52.203016015624996C42.46523203125,50.413616015624996,43.072932031250005,48.617516015625,43.66933203125,46.816416015625C44.237032031249996,45.102016015625,44.81353203125,43.390916015625,45.40043203125,41.682916015625C45.45543203125,41.522346015625004,45.45543203125,41.522346015625004,45.51163203125,41.358526015625C45.61413203125,41.059606015625,45.71703203125,40.760796015625004,45.82003203125,40.462036015625C45.87823203125,40.292846015625,45.936532031249996,40.123666015625,45.99663203125,39.949356015625C46.13993203125,39.550866015625,46.13993203125,39.550866015625,46.29363203125,39.243546015625C37.41963203125,39.243546015625,28.54569203125,39.243546015625,19.40283203125,39.243546015625C19.81208003125,38.834296015625,20.14639903125,38.514646015625,20.60271203125,38.184726015625C20.71591203125,38.102246015625,20.82911203125,38.019776015625,20.94575203125,37.934796015625C21.12803203125,37.802986015625,21.12803203125,37.802986015625,21.31399203125,37.668516015625C22.56064203125,36.759246015625,23.79220203125,35.832116015625,25.01594203125,34.892256015625C25.26207203125,34.703636015625,25.509582031249998,34.516806015625,25.75869203125,34.332136015625C26.16359203125,34.029046015625,26.16359203125,34.029046015625,26.50973203125,33.698196015625C27.82253203125,32.561920215625,29.02361203125,32.621656715625,30.66973203125,32.650208015625Z" fill="#FDFEFE" fill-opacity="1" style="mix-blend-mode:passthrough"/></g><g><path d="M80.07459609375,32.6630365484375C80.63289609374999,32.6821526484375,81.19139609375,32.6903736484375,81.74989609375,32.6996136484375C82.83909609375,32.7191881484375,83.92769609375,32.7505091484375,85.01639609375,32.7896501484375C84.55429609375,33.2636951484375,84.09149609375,33.7001721484375,83.56439609374999,34.1005721484375C83.43559609375001,34.1987221484375,83.30669609374999,34.2968721484375,83.17399609374999,34.3979921484375C83.03719609375,34.5010921484375,82.90039609375,34.6041921484375,82.75949609375,34.7104221484375C82.61619609375,34.8190621484375,82.47289609375,34.9277121484375,82.32519609375001,35.0396521484375C81.32759609375,35.7931021484375,80.31849609375,36.5288421484375,79.30169609375,37.2560721484375C78.26549609375,37.9999721484375,77.25269609375,38.7730421484375,76.24029609375,39.5489521484375C75.23949609375,40.3149721484375,74.22829609375,41.0654021484375,73.21139609375,41.8098721484375C72.28129609375,42.4925621484375,71.36319609374999,43.1900521484375,70.44739609375,43.8916521484375C69.40149609375,44.6927521484375,68.34609609375,45.4731521484375,67.26849609375,46.2308521484375C66.48229609375,46.7907521484375,65.72349609375,47.3885521484375,64.96469609375,47.9848521484375C64.85889609375,48.0670521484375,64.75319609375,48.1491521484375,64.64429609375,48.2338521484375C64.55009609375,48.3077521484375,64.45599609375,48.381652148437496,64.35899609375,48.4577521484375C64.11849609375,48.6167521484375,64.11849609375,48.6167521484375,63.81109609375,48.6167521484375C65.19479609375,50.7515521484375,66.58819609375,52.8796521484375,67.98879609375,55.0033521484375C68.08529609375,55.1496521484375,68.18179609375,55.2959521484375,68.28109609375,55.4467521484375C69.66899609375,57.551852148437504,71.06109609375,59.6538521484375,72.46239609375,61.750052148437504C72.55459609375,61.8882521484375,72.64689609375,62.0265521484375,72.74189609375,62.1690521484375C72.95229609375,62.4827521484375,73.16409609375,62.7955521484375,73.37679609375,63.1077521484375C73.48979609375,63.2745521484375,73.60289609375,63.4413521484375,73.71929609375,63.6131521484375C73.82269609375,63.7648521484375,73.92619609375001,63.9164521484375,74.03269609375,64.0726521484375C74.26009609375001,64.4439521484375,74.26009609375001,64.4439521484375,74.26009609375001,64.7512521484375C73.05009609375,64.8157521484375,71.84049609375,64.8646521484375,70.62919609375,64.8945521484375C70.06629609375,64.90895214843749,69.50469609375,64.9283521484375,68.94259609375,64.9598521484375C65.36849609375,65.15515214843751,65.36849609375,65.15515214843751,64.37719609375,64.5249521484375C63.76909609375,63.9145521484375,63.43189609375,63.178152148437505,63.08676609375,62.3982521484375C62.73599609375,61.6652521484375,62.262746093749996,61.0132521484375,61.80453609375,60.344252148437505C61.615986093749996,60.059552148437504,61.42801609375,59.774452148437504,61.24060609375,59.488952148437505C60.86140609375,58.9134521484375,60.48204609375,58.337952148437495,60.102556093749996,57.762652148437496C60.00921609375,57.6208521484375,59.915886093750004,57.4791521484375,59.81971609375,57.3330521484375C59.63294609375,57.0499521484375,59.44552609375,56.767352148437496,59.25740609375,56.4851521484375C58.78852609375,55.7790521484375,58.33695609375,55.0687521484375,57.90938609375,54.3367521484375C57.82409609375,54.1947521484375,57.73880609375,54.0527521484375,57.65092609375,53.9065521484375C57.49068609375,53.6385521484375,57.33486609375,53.367952148437496,57.18456609375,53.0943521484375C56.85428609375,52.550152148437505,56.63347609375,52.2191521484375,56.01809609375,52.0074521484375C55.07303609375,51.8484521484375,54.15648109375,51.8731521484375,53.20849609375,51.9973521484375C53.44027109375,50.7649521484375,53.84143009375,49.598952148437505,54.25272609375,48.4176521484375C54.37166609375,48.0757521484375,54.48929609375,47.7334521484375,54.60675609375,47.3910521484375C54.68180609375,47.1737521484375,54.75693609375,46.9564521484375,54.83214609375,46.7392521484375C54.88496609375,46.5855521484375,54.88496609375,46.5855521484375,54.93885609375,46.4288521484375C55.18830609375,45.714952148437504,55.18830609375,45.714952148437504,55.35975609375,45.5435521484375C55.56602609375,45.5455521484375,55.77222609375,45.5562521484375,55.97800609375,45.5705521484375C58.251106093749996,45.6551521484375,59.43218609375,45.0108521484375,61.12828609375,43.5569521484375C61.78750609375,43.0016521484375,62.47965609375,42.4897221484375,63.16767609375,41.9709221484375C63.44079609375,41.7620921484375,63.71389609375,41.5532121484375,63.98699609375,41.3442721484375C64.66759609375,40.8267121484375,65.35909609375,40.3277921484375,66.05849609375,39.8361721484375C67.01349609375,39.1603821484375,67.93789609375,38.4446921484375,68.86649609375,37.7333821484375C69.88289609374999,36.9559021484375,70.90769609375,36.1910321484375,71.94059609375,35.4356621484375C72.10139609375,35.3179221484375,72.10139609375,35.3179221484375,72.26549609375,35.1978121484375C72.38429609375,35.1151621484375,72.50309609375,35.0325121484375,72.62539609375,34.9473621484375C72.94949609375,34.6965121484375,73.21029609375,34.4544221484375,73.49319609375,34.1625521484375C75.38009609375,32.3409701484375,77.62559609375,32.5701368484375,80.07459609375,32.6630365484375Z" fill="#FCFDFE" fill-opacity="1" style="mix-blend-mode:passthrough"/></g><g><path d="M21.5541515625,42.316612828125C29.3056515625,41.253400828125,29.3056515625,41.253400828125,31.5313515625,42.586168828125C33.2571515625,44.019738828125,34.2080515625,46.228018828125,35.1272515625,48.225078828125C35.6283515625,49.299608828125,36.2678515625,50.253738828125,36.9534515625,51.217208828125C37.3230515625,51.739748828125,37.673151562499996,52.275448828125,38.025751562500005,52.809448828125C38.2222515625,53.104748828125,38.4224515625,53.397648828125,38.6251515625,53.688648828125C38.7777515625,53.913648828125,38.7777515625,53.913648828125,38.9335515625,54.143148828125C39.0263515625,54.277048828125004,39.1191515625,54.410948828125,39.2147515625,54.548848828125C39.3788515625,54.916848828125,39.3788515625,54.916848828125,39.2856515625,55.246848828124996C39.060551562499995,55.546048828125,38.8573515625,55.729448828125,38.5499515625,55.942048828124996C38.442851562499996,56.017548828125,38.335651562500004,56.092948828125,38.2252515625,56.170748828125C38.108351562500005,56.251348828125,37.9914515625,56.331948828125,37.8710515625,56.415048828125C37.618351562499996,56.593348828125,37.3658515625,56.772048828125,37.1135515625,56.951048828124996C36.9811515625,57.045048828125,36.848651562499995,57.139048828125,36.7121515625,57.235948828125004C36.0316515625,57.726648828125,35.367051562499995,58.237748828125,34.701851562499996,58.748748828125C33.5658515625,59.619748828125,32.420851562500005,60.476348828125,31.2658515625,61.321748828124996C30.1517515625,62.139348828125,29.0536515625,62.977148828124996,27.9581515625,63.819348828125C27.8285515625,63.918648828125,27.6990515625,64.017948828125,27.5655515625,64.120348828125C27.4505515625,64.208848828125,27.3355515625,64.297348828125,27.2170515625,64.388548828125C26.7780515625,64.71074882812499,26.5235515625,64.77034882812501,25.9871515625,64.769648828125C25.8535515625,64.76984882812499,25.7199515625,64.770048828125,25.5823515625,64.77034882812501C25.4354515625,64.769748828125,25.2885515625,64.769248828125,25.137251562499998,64.768648828125C24.9055515625,64.768648828125,24.9055515625,64.768648828125,24.6692515625,64.768648828125C24.157151562499998,64.768548828125,23.644951562499998,64.767348828125,23.132751562499998,64.766148828125C22.7783515625,64.765948828125,22.4239515625,64.765648828125,22.0695515625,64.76554882812499C21.1353515625,64.764948828125,20.2012015625,64.76344882812501,19.2670215625,64.76174882812501C18.314311562500002,64.760148828125,17.3616015625,64.759448828125,16.4088915625,64.758648828125C14.5385415625,64.757048828125,12.6682015625,64.75444882812499,10.7978515625,64.751148828125C11.2620395625,64.282348828125,11.7183575625,63.844148828125,12.2444315625,63.445648828125C12.3726415625,63.348148828125005,12.5008415625,63.250748828125,12.6329315625,63.150348828125004C12.768971562499999,63.047948828125,12.9050015625,62.945548828125,13.0451515625,62.840048828125C13.1867315625,62.732748828125,13.3283015625,62.625548828125005,13.4741715625,62.515048828125C14.5482115625,61.703448828125005,15.629371562500001,60.901548828125,16.7165915625,60.107748828125C16.8273915625,60.026748828125,16.938191562500002,59.945748828125005,17.0523515625,59.862248828125004C17.1635515625,59.783548828125,17.2747515625,59.704848828125,17.389311562499998,59.623848828125C17.7201815625,59.381248828124995,17.7201815625,59.381248828124995,17.9909015625,59.072748828125C18.6692015625,58.389848828125,19.2298915625,58.239348828125,20.164831562499998,58.228048828125C20.7294015625,58.236748828125,21.2933515625,58.253048828125,21.8576515625,58.273648828125005C25.0928515625,58.387348828125,25.0928515625,58.387348828125,27.8253515625,56.817148828125C28.0097515625,56.633648828125004,28.1904515625,56.446448828125,28.3665515625,56.255048828125C28.7672515625,55.844048828125,29.2227515625,55.543648828125,29.6982515625,55.224148828124996C29.4692515625,54.571748828124996,29.1301515625,54.030948828125,28.7414515625,53.464848828125C28.6020515625,53.258748828125,28.4627515625,53.052648828125,28.3235515625,52.846448828125C28.2480515625,52.734948828125,28.1726515625,52.623448828125,28.0948515625,52.508548828125C27.6564515625,51.856948828125,27.2257515625,51.200268828125,26.7942515625,50.544098828125C26.6045515625,50.256088828125,26.4149515625,49.968068828125,26.2252515625,49.680058828125C25.9356515625,49.240238828125,25.646151562500002,48.800388828125,25.356651562499998,48.360538828125C25.1654515625,48.069968828125,24.9740515625,47.779418828125,24.7827515625,47.488888828125C24.5949515625,47.203688828125,24.407151562499998,46.918428828125,24.2195515625,46.633118828125C23.765451562499997,45.943548828125,23.3088515625,45.255828828125,22.8469515625,44.571488828125C22.7606515625,44.443358828125,22.6743515625,44.315228828125,22.585451562499998,44.183218828125C22.4226515625,43.942018828125,22.2593515625,43.701208828125,22.0954515625,43.460868828125C21.5541515625,42.657998828125,21.5541515625,42.657998828125,21.5541515625,42.316612828125Z" fill="#FCFDFE" fill-opacity="1" style="mix-blend-mode:passthrough"/></g></g></svg>
