<svg width="160" height="33" viewBox="0 0 160 33" fill="none" xmlns="http://www.w3.org/2000/svg">
<path d="M0.76 30.12C0.253333 29.8 1.49012e-08 29.2933 1.49012e-08 28.6C1.49012e-08 27.9067 0.506667 26.8533 1.52 25.44C1.81333 24.9867 2.28 24.76 2.92 24.76C3.58667 24.76 4.48 25.0933 5.6 25.76C6.72 26.4 7.73333 26.72 8.64 26.72C10.2667 26.72 11.08 26.4 11.08 25.76C11.08 25.2533 10.1867 24.88 8.4 24.64C6.72 24.4 5.05333 23.7733 3.4 22.76C2.62667 22.28 1.98667 21.5333 1.48 20.52C0.973333 19.48 0.72 18.2533 0.72 16.84C0.72 12.6267 3.61333 10.52 9.4 10.52C11.2933 10.52 13.24 10.9733 15.24 11.88C16.1733 12.3067 16.64 12.84 16.64 13.48C16.64 14.12 16.3467 14.9067 15.76 15.84C15.1733 16.7733 14.5733 17.24 13.96 17.24C13.64 17.24 13.04 17.04 12.16 16.64C11.3067 16.24 10.3733 16.04 9.36 16.04C7.78667 16.04 7 16.3333 7 16.92C7 17.72 7.90667 18.24 9.72 18.48C11.48 18.6667 13.1867 19.1733 14.84 20C15.6133 20.3733 16.2533 21.0267 16.76 21.96C17.2933 22.8667 17.56 24.0133 17.56 25.4C17.56 26.7867 17.2933 27.9733 16.76 28.96C16.2533 29.92 15.5333 30.64 14.6 31.12C12.8933 31.9467 10.7467 32.36 8.16 32.36C5.6 32.36 3.13333 31.6133 0.76 30.12ZM19.5703 21.48C19.5703 18.28 20.6903 15.64 22.9303 13.56C25.1703 11.48 27.7303 10.44 30.6103 10.44C33.4903 10.44 36.037 11.48 38.2503 13.56C40.4636 15.6133 41.5703 18.24 41.5703 21.44C41.5703 23.6533 40.997 25.6267 39.8503 27.36C38.7036 29.0667 37.3036 30.3333 35.6503 31.16C34.0236 31.96 32.3303 32.36 30.5703 32.36C28.8103 32.36 27.1036 31.9333 25.4503 31.08C23.797 30.2 22.397 28.92 21.2503 27.24C20.1303 25.5333 19.5703 23.6133 19.5703 21.48ZM27.9303 24.36C28.7836 25 29.6503 25.32 30.5303 25.32C31.4103 25.32 32.2903 24.9867 33.1703 24.32C34.0503 23.6533 34.4903 22.6667 34.4903 21.36C34.4903 20.0533 34.077 19.08 33.2503 18.44C32.4236 17.8 31.5303 17.48 30.5703 17.48C29.6103 17.48 28.717 17.8133 27.8903 18.48C27.0636 19.1467 26.6503 20.1333 26.6503 21.44C26.6503 22.72 27.077 23.6933 27.9303 24.36ZM70.9947 18L68.3947 17.84V23.36C68.3947 24.08 68.5014 24.6 68.7147 24.92C68.9547 25.24 69.3814 25.4 69.9947 25.4C70.6347 25.4 71.1147 25.4267 71.4347 25.48C71.7814 25.5067 72.128 25.6267 72.4747 25.84C73.1147 26.1867 73.4347 27.08 73.4347 28.52C73.4347 30.2 73.0614 31.2267 72.3147 31.6C71.9147 31.7867 71.5547 31.9067 71.2347 31.96C70.9414 31.9867 70.5014 32 69.9147 32C67.3014 32 65.2347 31.2667 63.7147 29.8C62.1947 28.3333 61.4347 26.32 61.4347 23.76V17.84C59.9947 17.92 58.768 17.96 57.7547 17.96L53.8747 17.8V28.52C53.8747 29.5333 53.7414 30.2933 53.4747 30.8C53.2347 31.28 52.848 31.6 52.3147 31.76C51.808 31.92 51.1414 32 50.3147 32C49.488 32 48.8214 31.92 48.3147 31.76C47.8347 31.5733 47.488 31.2933 47.2747 30.92C47.0614 30.52 46.928 30.16 46.8747 29.84C46.848 29.52 46.8347 29.0533 46.8347 28.44V17.84C46.3014 17.92 45.7414 17.96 45.1547 17.96C44.5947 17.96 44.1147 17.7333 43.7147 17.28C43.3414 16.8267 43.1547 16.0533 43.1547 14.96C43.1547 13.8667 43.2214 13.08 43.3547 12.6C43.488 12.0933 43.6747 11.7333 43.9147 11.52C44.3414 11.1733 44.8747 11 45.5147 11L46.8347 11.16V9.04C46.8347 6.98667 47.568 5.13333 49.0347 3.48C50.5014 1.8 52.6214 0.959999 55.3947 0.959999C56.008 0.959999 56.4614 0.986665 56.7547 1.04C57.0747 1.06666 57.4347 1.17333 57.8347 1.36C58.5547 1.73333 58.9147 2.77333 58.9147 4.48C58.9147 5.76 58.688 6.66667 58.2347 7.2C57.8614 7.65333 57.2747 7.89333 56.4747 7.92C56.2347 7.94667 55.8614 7.96 55.3547 7.96C54.368 7.96 53.8747 8.29333 53.8747 8.96V11.16C55.3414 11.0533 56.6214 11 57.7147 11L61.4347 11.16V7.04C61.4347 6.42667 61.448 5.97333 61.4747 5.68C61.528 5.38667 61.648 5.06667 61.8347 4.72C62.208 4.05333 63.248 3.72 64.9547 3.72C66.768 3.72 67.8347 4.21333 68.1547 5.2C68.3147 5.62667 68.3947 6.30667 68.3947 7.24V11.16C69.568 11.0533 70.448 11 71.0347 11C71.648 11 72.1014 11.0267 72.3947 11.08C72.7147 11.1067 73.0614 11.2267 73.4347 11.44C74.1547 11.7867 74.5147 12.8133 74.5147 14.52C74.5147 16.2 74.1547 17.2267 73.4347 17.6C73.0347 17.7867 72.6747 17.9067 72.3547 17.96C72.0614 17.9867 71.608 18 70.9947 18ZM89.1328 21.44L94.4528 25.84C95.1195 26.4 95.5328 26.8267 95.6928 27.12C95.8795 27.4133 95.9728 27.6933 95.9728 27.96C95.9728 28.6 95.5595 29.4667 94.7328 30.56C93.8261 31.68 93.0261 32.24 92.3328 32.24C91.7461 32.24 90.9328 31.8533 89.8928 31.08L89.4928 30.8C88.8795 30.2933 87.9328 29.4133 86.6528 28.16C85.3728 26.88 84.3995 25.9733 83.7328 25.44V28.52C83.7328 29.1333 83.7061 29.6 83.6528 29.92C83.6261 30.2133 83.5061 30.56 83.2928 30.96C82.9461 31.6533 81.9195 32 80.2128 32C78.5328 32 77.5061 31.64 77.1328 30.92C76.9461 30.52 76.8261 30.1733 76.7728 29.88C76.7461 29.56 76.7328 29.0933 76.7328 28.48V4.52C76.7328 3.90667 76.7461 3.45333 76.7728 3.16C76.8261 2.84 76.9461 2.48 77.1328 2.08C77.5061 1.36 78.5461 0.999999 80.2528 0.999999C81.5328 0.999999 82.4395 1.22667 82.9728 1.68C83.4261 2.05333 83.6661 2.64 83.6928 3.44C83.7195 3.68 83.7328 4.05333 83.7328 4.56V17.24C84.2128 16.84 84.9328 16.16 85.8928 15.2C86.8795 14.24 87.6128 13.56 88.0928 13.16L88.5728 12.84C89.5061 12.12 90.3061 11.76 90.9728 11.76C91.6395 11.76 92.3995 12.3067 93.2528 13.4C94.1328 14.4667 94.5728 15.3067 94.5728 15.92C94.5728 16.5333 94.0795 17.2533 93.0928 18.08L89.1328 21.44ZM117.287 18.96C117.287 20.5867 116.874 21.8 116.047 22.6C115.247 23.3733 114.354 23.76 113.367 23.76H103.887C103.887 24.5067 104.327 25.1333 105.207 25.64C106.087 26.1467 106.967 26.4 107.847 26.4C109.394 26.4 110.607 26.24 111.487 25.92L111.927 25.76C112.567 25.4667 113.101 25.32 113.527 25.32C114.381 25.32 115.114 25.92 115.727 27.12C116.074 27.84 116.247 28.4533 116.247 28.96C116.247 31.3333 113.407 32.52 107.727 32.52C105.754 32.52 103.994 32.1867 102.447 31.52C100.927 30.8267 99.7405 29.92 98.8872 28.8C97.2072 26.64 96.3672 24.2267 96.3672 21.56C96.3672 18.2 97.4472 15.52 99.6072 13.52C101.794 11.4933 104.514 10.48 107.767 10.48C111.474 10.48 114.194 11.7867 115.927 14.4C116.834 15.7867 117.287 17.3067 117.287 18.96ZM108.847 20.12C109.861 20.12 110.367 19.6933 110.367 18.84C110.367 18.2267 110.127 17.7333 109.647 17.36C109.194 16.9867 108.527 16.8 107.647 16.8C106.794 16.8 105.941 17.16 105.087 17.88C104.234 18.5733 103.807 19.32 103.807 20.12H108.847ZM134.217 11.16C134.724 11.32 135.137 11.6 135.457 12C135.804 12.3733 135.977 12.9867 135.977 13.84C135.977 14.6933 135.724 15.6267 135.217 16.64C134.71 17.6533 133.977 18.16 133.017 18.16C132.537 18.16 132.07 18.0533 131.617 17.84C131.19 17.6267 130.617 17.52 129.897 17.52C129.177 17.52 128.497 17.7733 127.857 18.28C127.244 18.7867 126.937 19.4 126.937 20.12V28.52C126.937 29.1333 126.91 29.6 126.857 29.92C126.83 30.2133 126.71 30.56 126.497 30.96C126.097 31.6533 125.057 32 123.377 32C122.097 32 121.177 31.7733 120.617 31.32C120.19 30.9467 119.95 30.3733 119.897 29.6C119.897 29.3333 119.897 28.9467 119.897 28.44V14.4C119.897 13.7867 119.91 13.3333 119.937 13.04C119.99 12.72 120.11 12.3733 120.297 12C120.67 11.28 121.71 10.92 123.417 10.92C125.017 10.92 126.017 11.2267 126.417 11.84C126.71 12.2667 126.857 12.7067 126.857 13.16C126.99 12.9733 127.177 12.7467 127.417 12.48C127.684 12.2133 128.23 11.8533 129.057 11.4C129.884 10.9467 130.604 10.72 131.217 10.72C131.857 10.72 132.39 10.76 132.817 10.84C133.244 10.8933 133.71 11 134.217 11.16ZM149.898 10.92C152.565 10.92 154.778 11.9467 156.538 14C158.325 16.0267 159.218 18.5067 159.218 21.44V28.48C159.218 29.0933 159.191 29.56 159.138 29.88C159.111 30.1733 159.005 30.5067 158.818 30.88C158.445 31.6 157.405 31.96 155.698 31.96C153.805 31.96 152.711 31.4667 152.418 30.48C152.258 30.0267 152.178 29.3467 152.178 28.44V21.4C152.178 20.3067 151.858 19.4533 151.218 18.84C150.605 18.2267 149.765 17.92 148.698 17.92C147.658 17.92 146.805 18.24 146.138 18.88C145.498 19.52 145.178 20.36 145.178 21.4V28.48C145.178 29.0933 145.151 29.56 145.098 29.88C145.071 30.1733 144.951 30.5067 144.738 30.88C144.391 31.6 143.365 31.96 141.658 31.96C139.978 31.96 138.951 31.6 138.578 30.88C138.391 30.48 138.271 30.1333 138.218 29.84C138.191 29.52 138.178 29.0533 138.178 28.44V14.28C138.178 13.6933 138.191 13.2533 138.218 12.96C138.271 12.64 138.405 12.2933 138.618 11.92C138.991 11.2533 140.018 10.92 141.698 10.92C143.325 10.92 144.325 11.2267 144.698 11.84C144.965 12.2933 145.098 12.84 145.098 13.48C145.205 13.2933 145.445 13.0267 145.818 12.68C146.191 12.3333 146.551 12.0533 146.898 11.84C147.805 11.2267 148.805 10.92 149.898 10.92Z" fill="url(#paint0_linear_4_9)"/>
<defs>
<linearGradient id="paint0_linear_4_9" x1="-1" y1="17" x2="162" y2="17" gradientUnits="userSpaceOnUse">
<stop stop-color="#109BE6"/>
<stop offset="1" stop-color="#D5F4FF"/>
</linearGradient>
</defs>
</svg>
